<svg xmlns="http://www.w3.org/2000/svg" width="215.404" height="59.825" viewBox="0 0 215.404 59.825">
  <g id="그룹_11" data-name="그룹 11" transform="translate(-870.596 -24.211)">
    <g id="그룹_10" data-name="그룹 10" transform="translate(-486.976 -256.215)">
      <g id="Icon_feather-box" data-name="Icon feather-box" transform="translate(1359.071 294.119)">
        <path id="패스_8" data-name="패스 8" d="M44.5,34.2V16.372a4.46,4.46,0,0,0-2.222-3.856L26.722,3.6a4.433,4.433,0,0,0-4.444,0L6.722,12.516A4.46,4.46,0,0,0,4.5,16.372V34.2A4.46,4.46,0,0,0,6.722,38.06l15.556,8.916a4.433,4.433,0,0,0,4.444,0L42.278,38.06A4.46,4.46,0,0,0,44.5,34.2Z" transform="translate(-4.5 -3.003)" fill="none" stroke="#f9f9fd" stroke-linecap="round" stroke-linejoin="round" stroke-width="3"/>
        <path id="패스_9" data-name="패스 9" d="M4.9,10.44,24.311,21.549,43.717,10.44" transform="translate(-4.311 0.66)" fill="none" stroke="#f9f9fd" stroke-linecap="round" stroke-linejoin="round" stroke-width="3"/>
        <path id="패스_10" data-name="패스 10" d="M18,39.993V18" transform="translate(2 4.577)" fill="none" stroke="#f9f9fd" stroke-linecap="round" stroke-linejoin="round" stroke-width="3"/>
      </g>
      <path id="Icon_awesome-check" data-name="Icon awesome-check" d="M3.891,8.374.168,4.651a.573.573,0,0,1,0-.81l.81-.81a.573.573,0,0,1,.81,0L4.3,5.539,9.667.168a.573.573,0,0,1,.81,0l.81.81a.573.573,0,0,1,0,.81L4.7,8.374A.573.573,0,0,1,3.891,8.374Z" transform="matrix(0.985, 0.174, -0.174, 0.985, 1363.436, 317.693)" fill="#f9f9fd" stroke="#f9f9fd" stroke-width="1"/>
      <path id="Icon_material-settings-input-antenna" data-name="Icon material-settings-input-antenna" d="M19.7,21.709a3.893,3.893,0,1,0-3.115,0v5.139H19.7Z" transform="translate(1360.928 266.676)" fill="#f9f9fd" stroke="#f9f9fd" stroke-linecap="round" stroke-width="1"/>
    </g>
    <text id="vAIscan_Box" data-name="vAIscan Box" transform="translate(923 70)" fill="#f9f9fd" font-size="30" font-family="AppleSDGothicNeoEB00"><tspan x="0" y="0">vAIscan Box</tspan></text>
  </g>
</svg>
